<?xml version="1.0" encoding="UTF-8"?>
<svg id="_Слой_1" data-name="Слой 1" xmlns="http://www.w3.org/2000/svg" viewBox="0 0 845.66 848.5">
  <defs>
    <style>
      .cls-1 {
        stroke: #000;
        stroke-miterlimit: 10;
      }
    </style>
  </defs>
  <path class="cls-1" d="m342.2,168.15h167.65C509.85,75.56,434.79.5,342.2.5s-167.65,75.06-167.65,167.65,75.06,167.65,167.65,167.65v-167.65Z"/>
  <path class="cls-1" d="m677.51,335.81h-167.65c0-92.59,75.06-167.65,167.65-167.65s167.65,75.06,167.65,167.65-75.06,167.65-167.65,167.65v-167.65Z"/>
  <path class="cls-1" d="m509.85,680.35v-167.65c92.59,0,167.65,75.06,167.65,167.65s-75.06,167.65-167.65,167.65c-92.59,0-167.65-75.06-167.65-167.65h167.65Z"/>
  <path class="cls-1" d="m168.15,512.69h167.65c0,92.59-75.06,167.65-167.65,167.65S.5,605.29.5,512.69c0-92.59,75.06-167.65,167.65-167.65v167.65Z"/>
</svg>